Coordinates
version=1
nRows=17
nColumns=24
inDegrees=yes

Units are S.I. units (second, meters, Newtons, ...)
Angles are in degrees.

endheader
time	pelvis_tilt	pelvis_list	pelvis_rotation	pelvis_tx	pelvis_ty	pelvis_tz	hip_flexion_r	hip_adduction_r	hip_rotation_r	knee_angle_r	ankle_angle_r	subtalar_angle_r	mtp_angle_r	hip_flexion_l	hip_adduction_l	hip_rotation_l	knee_angle_l	ankle_angle_l	subtalar_angle_l	mtp_angle_l	lumbar_extension	lumbar_bending	lumbar_rotation
      1.53000000	     -4.64174739	     -0.54854748	     10.95750594	      0.11428216	      0.95822812	      0.01185823	     17.18385100	      2.18325144	      2.66270777	    -19.08000219	     13.28751523	      0.00000000	      0.00000000	     12.86389209	     -4.96839636	      0.79422579	    -55.31131091	     -1.20382282	      0.00000000	      0.00000000	     -2.65790452	      4.86352865	      0.77622735
      1.54000000	     -4.52625598	     -0.47582483	     10.97663587	      0.11315355	      0.95883665	      0.01271955	     16.48140754	      2.30067976	      2.87965390	    -18.83965468	     13.68693297	      0.00000000	      0.00000000	     14.02979423	     -5.17199856	      0.37843511	    -55.90397485	      0.13748162	      0.00000000	      0.00000000	     -2.85525895	      4.78800895	      1.01210949
      1.55000000	     -4.41296883	     -0.42989451	     10.96832114	      0.11198410	      0.95940718	      0.01358070	     15.82507310	      2.44788247	      3.07318462	    -18.66872517	     14.02116424	      0.00000000	      0.00000000	     15.16022234	     -5.37783704	     -0.04198569	    -56.26013962	      1.44928619	      0.00000000	      0.00000000	     -3.03904252	      4.74030373	      1.24672763
      1.56000000	     -4.31755197	     -0.38715837	     10.94380211	      0.11077386	      0.95993129	      0.01438678	     15.21025810	      2.59226539	      3.26742658	    -18.53364405	     14.33177030	      0.00000000	      0.00000000	     16.24750339	     -5.54784081	     -0.45714686	    -56.35191429	      2.74952675	      0.00000000	      0.00000000	     -3.19206690	      4.70017443	      1.47576017
      1.57000000	     -4.24197656	     -0.32111198	     10.89463856	      0.10948735	      0.96042004	      0.01517557	     14.63812023	      2.70932411	      3.44707953	    -18.43611122	     14.62915138	      0.00000000	      0.00000000	     17.28552496	     -5.64524666	     -0.86025489	    -56.18154432	      3.99210650	      0.00000000	      0.00000000	     -3.32988743	      4.63046737	      1.70046773
      1.58000000	     -4.17351070	     -0.18029558	     10.89264749	      0.10813791	      0.96091006	      0.01592458	     14.07053002	      2.71914902	      3.48094507	    -18.34281968	     14.85669055	      0.00000000	      0.00000000	     18.30278461	     -5.63545652	     -1.24715674	    -55.81238243	      4.76463716	      0.00000000	      0.00000000	     -3.47387609	      4.46492362	      1.81311779
      1.59000000	     -4.16422934	     -0.07357515	     10.80538329	      0.10690903	      0.96135481	      0.01648238	     13.55813994	      2.75558221	      3.63058062	    -18.24926138	     15.19298470	      0.00000000	      0.00000000	     19.18236145	     -5.55287107	     -1.57716735	    -55.01060736	      6.02549134	      0.00000000	      0.00000000	     -3.50689977	      4.35712717	      2.04913956
      1.60000000	     -4.12947483	      0.05047718	     10.72974046	      0.10547500	      0.96174796	      0.01709037	     13.08150550	      2.77916878	      3.69658208	    -18.25385487	     15.43406283	      0.00000000	      0.00000000	     20.04639882	     -5.43810200	     -1.90733219	    -54.07995089	      6.86676079	      0.00000000	      0.00000000	     -3.60598526	      4.22562616	      2.21412880
      1.61000000	     -4.11680100	      0.26190850	     10.60869467	      0.10395482	      0.96207231	      0.01762175	     12.61603763	      2.69344999	      3.81724970	    -18.25736562	     15.72447418	      0.00000000	      0.00000000	     20.83957791	     -5.19890275	     -2.26193850	    -52.94792024	      7.78370165	      0.00000000	      0.00000000	     -3.71394415	      3.99735753	      2.43002424
      1.62000000	     -4.06889818	      0.28661563	     10.58853645	      0.10231089	      0.96235514	      0.01808354	     12.20352179	      2.79744149	      3.79142635	    -18.36103154	     15.86305838	      0.00000000	      0.00000000	     21.64468195	     -5.09920328	     -2.41688998	    -51.65849391	      8.03991722	      0.00000000	      0.00000000	     -3.82814501	      3.98308078	      2.52335971
      1.63000000	     -4.06413659	      0.82351652	     10.34535651	      0.10079640	      0.96273124	      0.01850113	     11.72666865	      2.36567358	      3.96523051	    -18.43695119	     16.30396917	      0.00000000	      0.00000000	     22.08509342	     -4.47885461	     -2.92806457	    -49.87487912	      8.81560873	      0.00000000	      0.00000000	     -4.00440323	      3.40050511	      2.79195101
      1.64000000	     -4.07179011	      1.07914009	     10.22970222	      0.09913290	      0.96297604	      0.01875243	     11.27419288	      2.19254696	      3.98773938	    -18.40396779	     16.59141072	      0.00000000	      0.00000000	     22.65462911	     -4.09196164	     -3.21169098	    -48.05579611	      8.99312719	      0.00000000	      0.00000000	     -4.11358952	      3.14436270	      2.92849778
      1.65000000	     -4.08016378	      1.01068576	     10.19348898	      0.09734518	      0.96294682	      0.01894878	     10.92728812	      2.35729714	      3.92914132	    -18.46476114	     16.76579767	      0.00000000	      0.00000000	     23.34935913	     -4.00767314	     -3.30623761	    -46.27406084	      9.03834333	      0.00000000	      0.00000000	     -4.17278145	      3.25364617	      3.00233513
      1.66000000	     -4.06663335	      1.60797205	      9.97376480	      0.09570123	      0.96326188	      0.01913043	     10.38605281	      1.82654544	      4.05026190	    -18.40379802	     17.16787733	      0.00000000	      0.00000000	     23.54365515	     -3.27259659	     -3.76808494	    -43.88705695	      8.91215185	      0.00000000	      0.00000000	     -4.39035450	      2.61173418	      3.18753367
      1.67000000	     -4.09445713	      1.47975811	      9.92621965	      0.09387001	      0.96303579	      0.01918146	     10.07926406	      2.04330670	      4.02720887	    -18.47261127	     17.38004993	      0.00000000	      0.00000000	     24.14813118	     -3.21953002	     -3.82007765	    -41.85820507	      8.86087856	      0.00000000	      0.00000000	     -4.43164324	      2.79519778	      3.24221483
      1.68000000	     -4.04083790	      2.11114456	      9.66325147	      0.09223088	      0.96329630	      0.01925539	      9.50159184	      1.48021281	      4.23409722	    -18.42176162	     17.82006075	      0.00000000	      0.00000000	     24.11280722	     -2.45903032	     -4.32580848	    -39.12356393	      8.30454881	      0.00000000	      0.00000000	     -4.71281145	      2.13083568	      3.43405871
      1.69000000	     -4.02428773	      2.29724174	      9.49708468	      0.09049541	      0.96317154	      0.01926190	      9.06251966	      1.37907759	      4.38437124	    -18.41957731	     18.17160156	      0.00000000	      0.00000000	     24.32250564	     -2.11746173	     -4.59656705	    -36.59611203	      7.93085134	      0.00000000	      0.00000000	     -4.86909280	      1.96290515	      3.54818222
